<?xml version="1.0" encoding="UTF-8"?>
<svg id="Laag_1" data-name="Laag 1" xmlns="http://www.w3.org/2000/svg" viewBox="0 0 20 20">
  <defs>
    <style>
      .cls-1 {
        fill: #e7f1e3;
        stroke-width: 0px;
      }
    </style>
  </defs>
  <path class="cls-1" d="m10,20c-1.37,0-2.66-.26-3.88-.79s-2.28-1.24-3.19-2.15-1.63-1.97-2.15-3.19-.79-2.51-.79-3.88.26-2.68.79-3.89,1.24-2.27,2.15-3.18,1.97-1.63,3.19-2.15,2.51-.79,3.88-.79,2.68.26,3.89.79,2.27,1.24,3.18,2.15,1.63,1.97,2.15,3.18.79,2.5.79,3.89-.26,2.66-.79,3.88-1.24,2.28-2.15,3.19-1.97,1.63-3.18,2.15-2.5.79-3.89.79Zm0-2.05c.43-.6.81-1.23,1.13-1.88s.58-1.34.78-2.08h-3.8c.2.73.46,1.43.78,2.08s.69,1.28,1.13,1.88Zm-2.6-.4c-.3-.55-.56-1.12-.79-1.71-.23-.59-.41-1.2-.56-1.84h-2.95c.48.83,1.09,1.56,1.81,2.18.73.62,1.55,1.08,2.49,1.38Zm5.2,0c.93-.3,1.76-.76,2.49-1.38.73-.62,1.33-1.34,1.81-2.18h-2.95c-.15.63-.34,1.25-.56,1.84-.23.59-.49,1.16-.79,1.71ZM2.25,12h3.4c-.05-.33-.09-.66-.11-.99s-.04-.66-.04-1.01.01-.69.04-1.01.06-.65.11-.99h-3.4c-.08.33-.15.66-.19.99s-.06.66-.06,1.01.02.69.06,1.01.1.65.19.99Zm5.4,0h4.7c.05-.33.09-.66.11-.99s.04-.66.04-1.01-.01-.69-.04-1.01-.06-.65-.11-.99h-4.7c-.05.33-.09.66-.11.99s-.04.66-.04,1.01.01.69.04,1.01.06.65.11.99Zm6.7,0h3.4c.08-.33.15-.66.19-.99s.06-.66.06-1.01-.02-.69-.06-1.01-.1-.65-.19-.99h-3.4c.05.33.09.66.11.99s.04.66.04,1.01-.01.69-.04,1.01-.06.65-.11.99Zm-.4-6h2.95c-.48-.83-1.09-1.56-1.81-2.18s-1.55-1.08-2.49-1.38c.3.55.56,1.12.79,1.71s.41,1.2.56,1.84Zm-5.85,0h3.8c-.2-.73-.46-1.43-.78-2.08s-.69-1.28-1.13-1.88c-.43.6-.81,1.23-1.13,1.88s-.58,1.34-.78,2.08Zm-5,0h2.95c.15-.63.34-1.25.56-1.84s.49-1.16.79-1.71c-.93.3-1.76.76-2.49,1.38s-1.33,1.34-1.81,2.18Z"/>
</svg>