<?xml version="1.0" encoding="UTF-8"?>
<svg id="Laag_1" data-name="Laag 1" xmlns="http://www.w3.org/2000/svg" viewBox="0 0 22 22">
  <defs>
    <style>
      .cls-1 {
        fill: #131c2b;
        stroke-width: 0px;
      }
    </style>
  </defs>
  <path class="cls-1" d="m11,14c.83,0,1.54-.29,2.13-.88s.88-1.29.88-2.13-.29-1.54-.88-2.13-1.29-.88-2.13-.88-1.54.29-2.13.88-.88,1.29-.88,2.13.29,1.54.88,2.13,1.29.88,2.13.88Zm0,2c-1.38,0-2.56-.49-3.54-1.46s-1.46-2.15-1.46-3.54.49-2.56,1.46-3.54,2.15-1.46,3.54-1.46,2.56.49,3.54,1.46,1.46,2.15,1.46,3.54-.49,2.56-1.46,3.54-2.15,1.46-3.54,1.46ZM1,12c-.28,0-.52-.1-.71-.29s-.29-.43-.29-.71.1-.52.29-.71c.19-.19.43-.29.71-.29h2c.28,0,.52.1.71.29s.29.43.29.71-.1.52-.29.71-.43.29-.71.29H1Zm18,0c-.28,0-.52-.1-.71-.29s-.29-.43-.29-.71.1-.52.29-.71.43-.29.71-.29h2c.28,0,.52.1.71.29.19.19.29.43.29.71s-.1.52-.29.71-.43.29-.71.29h-2ZM11,4c-.28,0-.52-.1-.71-.29s-.29-.43-.29-.71V1c0-.28.1-.52.29-.71s.43-.29.71-.29.52.1.71.29c.19.19.29.43.29.71v2c0,.28-.1.52-.29.71s-.43.29-.71.29Zm0,18c-.28,0-.52-.1-.71-.29s-.29-.43-.29-.71v-2c0-.28.1-.52.29-.71s.43-.29.71-.29.52.1.71.29.29.43.29.71v2c0,.28-.1.52-.29.71-.19.19-.43.29-.71.29ZM4.65,6.05l-1.08-1.05c-.2-.18-.3-.42-.29-.7s.1-.53.29-.73c.2-.2.44-.3.73-.3s.52.1.7.3l1.05,1.08c.18.2.28.43.28.7s-.09.5-.28.7-.41.3-.69.29-.51-.1-.71-.29Zm12.35,12.38l-1.05-1.08c-.18-.2-.28-.44-.28-.71s.09-.5.28-.69c.18-.2.41-.3.69-.29s.51.1.71.29l1.08,1.05c.2.18.3.42.29.7s-.1.53-.29.73c-.2.2-.44.3-.73.3s-.52-.1-.7-.3Zm-1.05-12.38c-.2-.18-.3-.41-.29-.69s.1-.51.29-.71l1.05-1.08c.18-.2.42-.3.7-.29s.53.1.73.29c.2.2.3.44.3.73s-.1.52-.3.7l-1.08,1.05c-.2.18-.43.28-.7.28s-.5-.09-.7-.28ZM3.58,18.43c-.2-.2-.3-.44-.3-.73s.1-.52.3-.7l1.08-1.05c.2-.18.44-.28.71-.28s.5.09.69.28c.2.18.3.41.29.69s-.1.51-.29.71l-1.05,1.08c-.18.2-.42.3-.7.29s-.53-.1-.73-.29Z"/>
</svg>