<?xml version="1.0" encoding="UTF-8"?>
<svg id="Laag_1" data-name="Laag 1" xmlns="http://www.w3.org/2000/svg" viewBox="0 0 24 12">
  <defs>
    <style>
      .cls-1 {
        fill: #131c2b;
        stroke-width: 0px;
      }
    </style>
  </defs>
  <path class="cls-1" d="m0,12v-1.58c0-.72.37-1.3,1.1-1.75.73-.45,1.7-.68,2.9-.68.22,0,.43,0,.63.01s.39.03.58.06c-.23.35-.41.72-.53,1.1s-.18.78-.18,1.2v1.63H0Zm6,0v-1.63c0-.53.15-1.02.44-1.46.29-.44.7-.83,1.24-1.16s1.17-.58,1.91-.75,1.55-.25,2.41-.25,1.7.08,2.44.25,1.38.42,1.91.75.94.72,1.23,1.16.43.93.43,1.46v1.63H6Zm13.5,0v-1.63c0-.43-.05-.84-.16-1.23s-.27-.74-.49-1.08c.18-.03.37-.05.56-.06s.39-.01.59-.01c1.2,0,2.17.22,2.9.66s1.1,1.03,1.1,1.76v1.58h-4.5Zm-11.38-2h7.78c-.17-.33-.63-.63-1.39-.88s-1.6-.38-2.51-.38-1.75.13-2.51.38-1.21.54-1.36.88Zm-4.13-3c-.55,0-1.02-.2-1.41-.59s-.59-.86-.59-1.41.2-1.04.59-1.43.86-.58,1.41-.58,1.04.19,1.43.58.58.86.58,1.43-.19,1.02-.58,1.41-.86.59-1.43.59Zm16,0c-.55,0-1.02-.2-1.41-.59s-.59-.86-.59-1.41.2-1.04.59-1.43.86-.58,1.41-.58,1.04.19,1.43.58.58.86.58,1.43-.19,1.02-.58,1.41-.86.59-1.43.59Zm-8-1c-.83,0-1.54-.29-2.13-.88-.58-.58-.88-1.29-.88-2.13s.29-1.56.88-2.14,1.29-.86,2.13-.86,1.56.29,2.14.86.86,1.29.86,2.14-.29,1.54-.86,2.13c-.58.58-1.29.88-2.14.88Zm0-2c.28,0,.52-.1.71-.29.19-.19.29-.43.29-.71s-.1-.52-.29-.71c-.19-.19-.43-.29-.71-.29s-.52.1-.71.29-.29.43-.29.71.1.52.29.71.43.29.71.29Z"/>
</svg>