<?xml version="1.0" encoding="UTF-8"?>
<svg id="Laag_1" data-name="Laag 1" xmlns="http://www.w3.org/2000/svg" xmlns:xlink="http://www.w3.org/1999/xlink" viewBox="0 0 612.47 206.44">
  <defs>
    <style>
      .cls-1 {
        letter-spacing: -.03em;
      }

      .cls-2 {
        fill: url(#Naamloos_verloop_2);
      }

      .cls-2, .cls-3, .cls-4, .cls-5, .cls-6, .cls-7 {
        stroke-width: 0px;
      }

      .cls-8 {
        letter-spacing: .01em;
      }

      .cls-9 {
        fill: #a8a8a8;
      }

      .cls-9, .cls-10 {
        font-size: 15.16px;
      }

      .cls-9, .cls-10, .cls-11 {
        font-family: Montserrat-Regular, Montserrat;
      }

      .cls-12 {
        letter-spacing: 0em;
      }

      .cls-3, .cls-10, .cls-13, .cls-11 {
        fill: #e7f1e3;
      }

      .cls-14 {
        letter-spacing: 0em;
      }

      .cls-15 {
        letter-spacing: 0em;
      }

      .cls-16 {
        letter-spacing: -.03em;
      }

      .cls-17 {
        letter-spacing: 0em;
      }

      .cls-18 {
        letter-spacing: 0em;
      }

      .cls-19 {
        letter-spacing: 0em;
      }

      .cls-4 {
        fill: #1d4f39;
      }

      .cls-20 {
        letter-spacing: 0em;
      }

      .cls-21 {
        letter-spacing: -.02em;
      }

      .cls-13, .cls-22 {
        font-family: Montserrat-Bold, Montserrat;
        font-size: 20px;
        font-weight: 700;
      }

      .cls-11 {
        font-size: 18.72px;
      }

      .cls-5 {
        fill: url(#Naamloos_verloop_4);
      }

      .cls-22, .cls-7 {
        fill: #043821;
      }

      .cls-6 {
        fill: url(#Naamloos_verloop_3);
      }

      .cls-23 {
        letter-spacing: -.01em;
      }

      .cls-24 {
        letter-spacing: -.01em;
      }
    </style>
    <linearGradient id="Naamloos_verloop_2" data-name="Naamloos verloop 2" x1="0" y1="176.44" x2="291.31" y2="176.44" gradientUnits="userSpaceOnUse">
      <stop offset="0" stop-color="#20533b"/>
      <stop offset="1" stop-color="#08110c"/>
    </linearGradient>
    <linearGradient id="Naamloos_verloop_3" data-name="Naamloos verloop 3" x1="-53.62" y1="187.91" x2="286.54" y2="187.91" gradientTransform="translate(173.41 -78.8) scale(.61 1)" gradientUnits="userSpaceOnUse">
      <stop offset="0" stop-color="#060d0a"/>
      <stop offset="1" stop-color="#42b27f"/>
    </linearGradient>
    <linearGradient id="Naamloos_verloop_4" data-name="Naamloos verloop 4" x1="159.56" y1="60.97" x2="450.88" y2="60.97" gradientTransform="translate(-69.24 -96.69) rotate(13.85) scale(1.57 1)" gradientUnits="userSpaceOnUse">
      <stop offset="0" stop-color="#000"/>
      <stop offset="1" stop-color="#000"/>
    </linearGradient>
  </defs>
  <rect class="cls-2" y="146.44" width="291.31" height="60"/>
  <rect class="cls-6" x="140.7" y="79.11" width="207.5" height="60" transform="translate(162.77 -145.82) rotate(48.18)"/>
  <text class="cls-10" transform="translate(22.68 173)"><tspan x="0" y="0">iOS App</tspan><tspan class="cls-16" x="0" y="18.2">A</tspan><tspan class="cls-21" x="10.48" y="18.2">v</tspan><tspan class="cls-12" x="18.46" y="18.2">ailable</tspan></text>
  <text transform="translate(176.68 173)"><tspan class="cls-13"><tspan class="cls-17" x="0" y="0">3</tspan><tspan class="cls-14" x="11.64" y="0">5M+</tspan></tspan><tspan class="cls-9"><tspan x="0" y="18.2">R</tspan><tspan class="cls-24" x="10.96" y="18.2">e</tspan><tspan class="cls-12" x="19.97" y="18.2">vi</tspan><tspan class="cls-24" x="32.27" y="18.2">e</tspan><tspan class="cls-15" x="41.28" y="18.2">w</tspan><tspan x="54.52" y="18.2">s</tspan></tspan></text>
  <g>
    <rect class="cls-4" x="112.48" y="172.06" width="37.84" height="7.77"/>
    <circle class="cls-4" cx="131.4" cy="175.94" r="12.43"/>
    <rect class="cls-4" x="112.48" y="172.06" width="37.84" height="7.77" transform="translate(307.34 44.54) rotate(90)"/>
    <rect class="cls-4" x="112.48" y="172.06" width="37.84" height="7.77" transform="translate(162.9 -41.38) rotate(45)"/>
    <rect class="cls-4" x="112.48" y="172.06" width="37.84" height="7.77" transform="translate(348.72 207.44) rotate(135)"/>
  </g>
  <text class="cls-10" transform="translate(252.33 109.48) rotate(48.18)"><tspan x="0" y="0">D</tspan><tspan class="cls-23" x="12.53" y="0">o</tspan><tspan x="21.81" y="0">wnl</tspan><tspan class="cls-18" x="49.48" y="0">o</tspan><tspan class="cls-19" x="58.94" y="0">a</tspan><tspan x="67.92" y="0">ds</tspan></text>
  <text class="cls-22" transform="translate(236.57 123.68) rotate(48.18)"><tspan class="cls-8" x="0" y="0">6.</tspan><tspan x="18.38" y="0">8M+</tspan></text>
  <path class="cls-7" d="m244.07,86.36c3.52-.29,5.51,1.92,5.51,1.92,0,0-1.68,2.09-4.99,2.21-3.54.13-4.92-2.09-4.92-2.09,0,0,1.27-1.79,4.4-2.04Zm-5.6,3.48c.73.82,3.22,1.33,4.99,3.31,3.05,3.4,1.82,6.91,1.82,6.91,0,0-3.68-1.42-6.93,1.49-3.67,3.28-2.01,7.67-2.01,7.67,0,0-8.46,3.46-11.22.38-1.27-1.42-1.3-3.37-2.63-4.86s-3.7-2.14-4.58-3.12c-2.52-2.81.39-11.82,5.29-16.2s10.03-3.56,12.56-.74c1.64,1.83,1.86,4.2,2.71,5.16h0Z"/>
  <polyline class="cls-5" points="193.49 0 612.47 103.33 598.1 161.58 152.86 51.78 183.11 13.03"/>
  <text class="cls-11" transform="translate(216.98 44.27) rotate(13.43)"><tspan x="0" y="0">DIGI</tspan><tspan class="cls-1" x="41.25" y="0">T</tspan><tspan class="cls-20" x="51.34" y="0">AL BANKING</tspan></text>
  <path class="cls-3" d="m204.89,22.18l1.86,6.81c.08.29.24.55.46.76l5.24,4.73c.92.84.56,2.36-.64,2.69l-6.81,1.86c-.29.08-.55.24-.76.46l-4.73,5.24c-.84.92-2.36.56-2.69-.64l-1.86-6.81c-.08-.29-.24-.55-.46-.76l-5.24-4.73c-.92-.84-.56-2.36.64-2.69l6.81-1.86c.29-.08.55-.24.76-.46l4.73-5.24c.84-.92,2.36-.56,2.69.64Z"/>
  <text class="cls-11" transform="translate(424.77 93.51) rotate(13.43)"><tspan x="0" y="0">DIGI</tspan><tspan class="cls-1" x="41.25" y="0">T</tspan><tspan class="cls-20" x="51.34" y="0">AL BANKING</tspan></text>
  <path class="cls-3" d="m412.68,71.43l1.86,6.81c.08.29.24.55.46.76l5.24,4.73c.92.84.56,2.36-.64,2.69l-6.81,1.86c-.29.08-.55.24-.76.46l-4.73,5.24c-.84.92-2.36.56-2.69-.64l-1.86-6.81c-.08-.29-.24-.55-.46-.76l-5.24-4.73c-.92-.84-.56-2.36.64-2.69l6.81-1.86c.29-.08.55-.24.76-.46l4.73-5.24c.84-.92,2.36-.56,2.69.64Z"/>
</svg>