<?xml version="1.0" encoding="UTF-8"?>
<svg id="Laag_1" data-name="Laag 1" xmlns="http://www.w3.org/2000/svg" viewBox="0 0 20 20">
  <defs>
    <style>
      .cls-1 {
        fill: #131c2b;
        stroke-width: 0px;
      }
    </style>
  </defs>
  <path class="cls-1" d="m10,20c-1.38,0-2.68-.26-3.9-.79s-2.28-1.24-3.18-2.14-1.61-1.96-2.14-3.18-.79-2.52-.79-3.9.26-2.68.79-3.9,1.24-2.28,2.14-3.18,1.96-1.61,3.18-2.14,2.52-.79,3.9-.79,2.68.26,3.9.79,2.28,1.24,3.18,2.14,1.61,1.96,2.14,3.18.79,2.52.79,3.9-.26,2.68-.79,3.9-1.24,2.28-2.14,3.18-1.96,1.61-3.18,2.14-2.52.79-3.9.79Zm0-2c2.23,0,4.13-.78,5.68-2.33s2.33-3.44,2.33-5.68c0-.9-.15-1.77-.44-2.6s-.71-1.6-1.26-2.3l-11.2,11.2c.7.55,1.47.97,2.3,1.26s1.7.44,2.6.44Zm-6.3-3.1L14.9,3.7c-.7-.55-1.47-.97-2.3-1.26s-1.7-.44-2.6-.44c-2.23,0-4.13.78-5.68,2.33s-2.33,3.44-2.33,5.68c0,.9.15,1.77.44,2.6s.71,1.6,1.26,2.3Z"/>
</svg>