<?xml version="1.0" encoding="UTF-8"?>
<svg id="Laag_1" data-name="Laag 1" xmlns="http://www.w3.org/2000/svg" viewBox="0 0 18.01 18.01">
  <defs>
    <style>
      .cls-1 {
        fill: #131c2b;
        stroke-width: 0px;
      }
    </style>
  </defs>
  <path class="cls-1" d="m16.61,18l-6.3-6.3c-.5.4-1.08.72-1.73.95s-1.34.35-2.08.35c-1.82,0-3.35-.63-4.61-1.89s-1.89-2.8-1.89-4.61S.64,3.15,1.9,1.89C3.16.63,4.69,0,6.51,0s3.35.63,4.61,1.89c1.26,1.26,1.89,2.8,1.89,4.61,0,.73-.12,1.43-.35,2.08-.23.65-.55,1.23-.95,1.73l6.3,6.3-1.4,1.4h0Zm-10.1-7c1.25,0,2.31-.44,3.19-1.31s1.31-1.94,1.31-3.19-.44-2.31-1.31-3.19-1.94-1.31-3.19-1.31-2.31.44-3.19,1.31-1.31,1.94-1.31,3.19.44,2.31,1.31,3.19,1.94,1.31,3.19,1.31Z"/>
</svg>